<?xml version="1.0" encoding="utf-8"?>
<svg width="1598.3999px" height="219.74414px" viewBox="0 0 1598.3999 219.74414" version="1.1" xmlns:xlink="http://www.w3.org/1999/xlink" xmlns="http://www.w3.org/2000/svg">
  <g id="Ver.">
    <path d="M83.232 4.032L126.432 4.032L209.664 215.712L166.464 215.712L147.456 164.448L60.192 164.448L41.472 215.712L0 215.712L83.232 4.032ZM134.784 129.024L104.256 46.08L103.68 46.08L73.152 129.024L134.784 129.024ZM226.944 63.648L263.52 63.648L263.232 90.432L264.096 90.432C268.512 81.216 274.32 73.968 281.52 68.688C288.72 63.408 296.928 60.768 306.144 60.768C312.48 60.768 318.72 62.016 324.864 64.512L318.816 98.784C314.208 96.48 308.64 95.328 302.112 95.328C291.36 95.328 282.768 99.504 276.336 107.856C269.904 116.208 266.688 127.008 266.688 140.256L266.688 215.712L226.944 215.712L226.944 63.648ZM401.472 60.768C413.376 60.768 424.608 63.36 435.168 68.544C445.728 73.728 454.56 80.64 461.664 89.28L436.608 113.184C427.392 101.28 416.256 95.328 403.2 95.328C391.488 95.328 382.32 99.408 375.696 107.568C369.072 115.728 365.76 126.336 365.76 139.392C365.76 152.448 369.024 163.104 375.552 171.36C382.08 179.616 391.2 183.744 402.912 183.744C410.976 183.744 418.176 181.632 424.512 177.408C430.848 173.184 436.224 167.808 440.64 161.28L465.408 183.744C459.072 194.112 450.432 202.464 439.488 208.8C428.544 215.136 415.872 218.304 401.472 218.304C386.112 218.304 372.624 214.848 361.008 207.936C349.392 201.024 340.416 191.568 334.08 179.568C327.744 167.568 324.576 154.176 324.576 139.392C324.576 124.8 327.744 111.552 334.08 99.648C340.416 87.744 349.44 78.288 361.152 71.28C372.864 64.272 386.304 60.768 401.472 60.768L401.472 60.768Z" id="小路" fill="#366EF4" fill-rule="evenodd" stroke="none" />
    <path d="M666.432 167.328C659.904 183.072 648.96 195.744 633.6 205.344C618.24 214.944 600.672 219.744 580.896 219.744C560.928 219.744 542.976 215.04 527.04 205.632C511.104 196.224 498.672 183.216 489.744 166.608C480.816 150 476.352 131.136 476.352 110.016C476.352 88.896 480.864 69.984 489.888 53.28C498.912 36.576 511.344 23.52 527.184 14.112C543.024 4.704 560.736 9.53674e-07 580.32 9.53674e-07C596.64 9.53674e-07 611.856 3.21601 625.968 9.64801C640.08 16.08 651.36 24.672 659.808 35.424L632.736 62.496C625.44 54.432 617.568 48.384 609.12 44.352C600.672 40.32 591.072 38.304 580.32 38.304C568.608 38.304 558.144 41.28 548.928 47.232C539.712 53.184 532.56 61.584 527.472 72.432C522.384 83.28 519.84 95.808 519.84 110.016C519.84 124.032 522.432 136.464 527.616 147.312C532.8 158.16 540.096 166.608 549.504 172.656C558.912 178.704 569.664 181.728 581.76 181.728C604.8 181.728 622.368 171.168 634.464 150.048L666.432 167.328ZM679.392 139.392C679.392 124.416 682.608 110.928 689.04 98.928C695.472 86.928 704.496 77.568 716.112 70.848C727.728 64.128 741.12 60.768 756.288 60.768C771.456 60.768 784.848 64.128 796.464 70.848C808.08 77.568 817.104 86.928 823.536 98.928C829.968 110.928 833.184 124.416 833.184 139.392C833.184 154.56 829.968 168.144 823.536 180.144C817.104 192.144 808.08 201.504 796.464 208.224C784.848 214.944 771.456 218.304 756.288 218.304C741.12 218.304 727.728 214.944 716.112 208.224C704.496 201.504 695.472 192.144 689.04 180.144C682.608 168.144 679.392 154.56 679.392 139.392L679.392 139.392ZM720.576 139.392C720.576 152.256 723.744 162.864 730.08 171.216C736.416 179.568 745.152 183.744 756.288 183.744C767.424 183.744 776.16 179.568 782.496 171.216C788.832 162.864 792 152.256 792 139.392C792 126.72 788.832 116.208 782.496 107.856C776.16 99.504 767.424 95.328 756.288 95.328C745.152 95.328 736.416 99.504 730.08 107.856C723.744 116.208 720.576 126.72 720.576 139.392L720.576 139.392ZM857.664 63.648L894.816 63.648L894.816 84.96L895.68 84.96C899.328 78.816 905.472 73.248 914.112 68.256C922.752 63.264 932.064 60.768 942.048 60.768C952.224 60.768 961.344 63.312 969.408 68.4C977.472 73.488 983.808 80.64 988.416 89.856C993.024 99.072 995.328 109.824 995.328 122.112L995.328 215.712L955.872 215.712L955.872 129.312C955.872 117.984 953.712 109.488 949.392 103.824C945.072 98.16 939.168 95.328 931.68 95.328C925.536 95.328 919.872 97.104 914.688 100.656C909.504 104.208 905.328 109.104 902.16 115.344C898.992 121.584 897.408 128.736 897.408 136.8L897.408 215.712L857.664 215.712L857.664 63.648ZM1026.43 63.648L1063.58 63.648L1063.58 84.96L1064.45 84.96C1068.1 78.816 1074.24 73.248 1082.88 68.256C1091.52 63.264 1100.83 60.768 1110.82 60.768C1120.99 60.768 1130.11 63.312 1138.18 68.4C1146.24 73.488 1152.58 80.64 1157.18 89.856C1161.79 99.072 1164.1 109.824 1164.1 122.112L1164.1 215.712L1124.64 215.712L1124.64 129.312C1124.64 117.984 1122.48 109.488 1118.16 103.824C1113.84 98.16 1107.94 95.328 1100.45 95.328C1094.3 95.328 1088.64 97.104 1083.46 100.656C1078.27 104.208 1074.1 109.104 1070.93 115.344C1067.76 121.584 1066.18 128.736 1066.18 136.8L1066.18 215.712L1026.43 215.712L1026.43 63.648ZM1326.24 190.368C1320.1 198.624 1311.17 205.344 1299.46 210.528C1287.74 215.712 1275.55 218.304 1262.88 218.304C1248.29 218.304 1235.18 215.04 1223.57 208.512C1211.95 201.984 1202.83 192.72 1196.21 180.72C1189.58 168.72 1186.27 154.848 1186.27 139.104C1186.27 124.32 1189.54 110.976 1196.06 99.072C1202.59 87.168 1211.57 77.808 1222.99 70.992C1234.42 64.176 1247.14 60.768 1261.15 60.768C1275.55 60.768 1288.18 64.08 1299.02 70.704C1309.87 77.328 1318.27 86.544 1324.22 98.352C1330.18 110.16 1333.15 123.552 1333.15 138.528C1333.15 141.6 1332.96 146.208 1332.58 152.352L1226.59 152.352C1228.13 162.72 1232.16 170.928 1238.69 176.976C1245.22 183.024 1254.24 186.048 1265.76 186.048C1273.44 186.048 1280.59 184.464 1287.22 181.296C1293.84 178.128 1299.65 173.76 1304.64 168.192L1326.24 190.368ZM1292.83 124.416C1292.45 115.008 1289.28 107.328 1283.33 101.376C1277.38 95.424 1270.18 92.448 1261.73 92.448C1252.13 92.448 1244.3 95.424 1238.26 101.376C1232.21 107.328 1228.32 115.008 1226.59 124.416L1292.83 124.416ZM1424.16 60.768C1436.06 60.768 1447.3 63.36 1457.86 68.544C1468.42 73.728 1477.25 80.64 1484.35 89.28L1459.3 113.184C1450.08 101.28 1438.94 95.328 1425.89 95.328C1414.18 95.328 1405.01 99.408 1398.38 107.568C1391.76 115.728 1388.45 126.336 1388.45 139.392C1388.45 152.448 1391.71 163.104 1398.24 171.36C1404.77 179.616 1413.89 183.744 1425.6 183.744C1433.66 183.744 1440.86 181.632 1447.2 177.408C1453.54 173.184 1458.91 167.808 1463.33 161.28L1488.1 183.744C1481.76 194.112 1473.12 202.464 1462.18 208.8C1451.23 215.136 1438.56 218.304 1424.16 218.304C1408.8 218.304 1395.31 214.848 1383.7 207.936C1372.08 201.024 1363.1 191.568 1356.77 179.568C1350.43 167.568 1347.26 154.176 1347.26 139.392C1347.26 124.8 1350.43 111.552 1356.77 99.648C1363.1 87.744 1372.13 78.288 1383.84 71.28C1395.55 64.272 1408.99 60.768 1424.16 60.768L1424.16 60.768ZM1596.1 97.344L1556.06 97.344L1556.06 159.264C1556.06 167.712 1557.26 173.904 1559.66 177.84C1562.06 181.776 1566.34 183.744 1572.48 183.744C1578.82 183.744 1585.82 182.304 1593.5 179.424L1598.4 211.392C1594.56 213.312 1589.66 214.944 1583.71 216.288C1577.76 217.632 1571.42 218.304 1564.7 218.304C1548.77 218.304 1536.77 213.648 1528.7 204.336C1520.64 195.024 1516.61 181.44 1516.61 163.584L1516.61 97.344L1490.11 97.344L1490.11 63.648L1516.61 63.648L1516.61 16.416L1556.06 16.416L1556.06 63.648L1596.1 63.648L1596.1 97.344Z" id="小路" fill="#81C995" fill-rule="evenodd" stroke="none" />
  </g>
</svg>